<svg version="1.1" viewBox="0.0 0.0 214.3202099737533 198.60367454068242" fill="none" stroke="none" stroke-linecap="square" stroke-miterlimit="10" xmlns:xlink="http://www.w3.org/1999/xlink" xmlns="http://www.w3.org/2000/svg"><clipPath id="p.0"><path d="m0 0l214.3202 0l0 198.60367l-214.3202 0l0 -198.60367z" clip-rule="nonzero"/></clipPath><g clip-path="url(#p.0)"><path fill="#000000" fill-opacity="0.0" d="m0 0l214.3202 0l0 198.60367l-214.3202 0z" fill-rule="evenodd"/><g filter="url(#shadowFilter-p.1)"><use xlink:href="#p.1" transform="matrix(1.0 0.0 0.0 1.0 0.813473490813648 1.8270913385826602)"/></g><defs><filter id="shadowFilter-p.1" filterUnits="userSpaceOnUse"><feGaussianBlur in="SourceAlpha" stdDeviation="1.5" result="blur"/><feComponentTransfer in="blur" color-interpolation-filters="sRGB"><feFuncR type="linear" slope="0" intercept="0.2627451"/><feFuncG type="linear" slope="0" intercept="0.2627451"/><feFuncB type="linear" slope="0" intercept="0.2627451"/><feFuncA type="linear" slope="0.6" intercept="0"/></feComponentTransfer></filter></defs><g id="p.1"><path fill="#c2dbdf" d="m11.097113 36.53607l0 0c0 -17.68506 14.336576 -32.021637 32.021637 -32.021637l128.0827 0l0 0c8.4926605 0 16.637497 3.3736987 22.642715 9.378921c6.0052185 6.0052223 9.3789215 14.150051 9.3789215 22.642715l0 128.33469c0 17.685059 -14.336578 32.021637 -32.021637 32.021637l-128.0827 0c-17.685062 0 -32.021637 -14.336578 -32.021637 -32.021637z" fill-rule="evenodd"/><path stroke="#0f6a7b" stroke-width="3.0" stroke-linejoin="round" d="m11.097113 36.53607l0 0c0 -17.68506 14.336576 -32.021637 32.021637 -32.021637l128.0827 0l0 0c8.4926605 0 16.637497 3.3736987 22.642715 9.378921c6.0052185 6.0052223 9.3789215 14.150051 9.3789215 22.642715l0 128.33469c0 17.685059 -14.336578 32.021637 -32.021637 32.021637l-128.0827 0c-17.685062 0 -32.021637 -14.336578 -32.021637 -32.021637z" fill-rule="evenodd"/></g><path fill="#0f6a7b" d="m28.174368 78.493095l0 0c0 -5.813759 4.7129803 -10.526733 10.5267315 -10.526733l136.54485 0c2.7918549 0 5.4693756 1.1090622 7.443512 3.0832062c1.9741516 1.974144 3.0832214 4.651657 3.0832214 7.443527l0 42.10566c0 5.813751 -4.712982 10.526733 -10.526733 10.526733l-136.54485 0l0 0c-5.813751 0 -10.5267315 -4.712982 -10.5267315 -10.526733z" fill-rule="evenodd"/><path fill="#0f6a7b" d="m14.853206 94.69207l0 0c0 -18.965874 15.320373 -34.34075 34.219006 -34.34075l0 0c9.075447 0 17.779182 3.6180344 24.196495 10.058174c6.417305 6.44014 10.022514 15.174843 10.022514 24.282578l0 0c0 18.965874 -15.320374 34.34075 -34.21901 34.34075l0 0c-18.898634 0 -34.219006 -15.374878 -34.219006 -34.34075z" fill-rule="evenodd"/><path fill="#0f6a7b" d="m66.11871 68.748985l0 0c0 -21.706684 17.534363 -39.30343 39.1641 -39.30343l0 0c10.386963 0 20.348503 4.1408863 27.6932 11.511709c7.344681 7.370823 11.470886 17.367805 11.470886 27.791721l0 0c0 21.706688 -17.534355 39.303436 -39.164085 39.303436l0 0c-21.629738 0 -39.1641 -17.596748 -39.1641 -39.303436z" fill-rule="evenodd"/><path fill="#0f6a7b" d="m88.055565 82.43678l0 0c0 -21.706688 17.534363 -39.303432 39.164093 -39.303432l0 0c10.3869705 0 20.348503 4.1408844 27.6932 11.511707c7.344696 7.370823 11.4709015 17.367805 11.4709015 27.791725l0 0c0 21.706688 -17.534363 39.30343 -39.1641 39.30343l0 0c-21.62973 0 -39.164093 -17.59674 -39.164093 -39.30343z" fill-rule="evenodd"/><path fill="#0f6a7b" d="m126.71565 97.85128l0 0c0 -20.161118 16.285873 -36.504932 36.375504 -36.504932l0 0c9.647385 0 18.899643 3.8460426 25.721375 10.692051c6.8217316 6.8460007 10.654144 16.131172 10.654144 25.812881l0 0c0 20.16111 -16.285873 36.50492 -36.37552 36.50492l0 0c-20.08963 0 -36.375504 -16.343811 -36.375504 -36.50492z" fill-rule="evenodd"/><path fill="#0f6a7b" d="m67.72729 103.231544l39.43313 -14.855072l39.433136 14.855072l-39.433136 14.855064z" fill-rule="evenodd"/><path stroke="#ffffff" stroke-width="1.0" stroke-linejoin="round" stroke-linecap="butt" d="m67.72729 103.231544l39.43313 -14.855072l39.433136 14.855072l-39.433136 14.855064z" fill-rule="evenodd"/><path fill="#0f6a7b" d="m67.72729 95.86109l39.43313 -14.855072l39.433136 14.855072l-39.433136 14.855072z" fill-rule="evenodd"/><path stroke="#ffffff" stroke-width="1.0" stroke-linejoin="round" stroke-linecap="butt" d="m67.72729 95.86109l39.43313 -14.855072l39.433136 14.855072l-39.433136 14.855072z" fill-rule="evenodd"/><path fill="#0f6a7b" d="m30.85455 143.75294l59.559055 0l0 8.346451l-59.559055 0z" fill-rule="evenodd"/><path fill="#0f6a7b" d="m123.90899 143.75294l59.55906 0l0 8.346451l-59.55906 0z" fill-rule="evenodd"/><path fill="#0f6a7b" d="m67.72729 88.19804l39.43313 -14.855072l39.433136 14.855072l-39.433136 14.855072z" fill-rule="evenodd"/><path stroke="#ffffff" stroke-width="1.0" stroke-linejoin="round" stroke-linecap="butt" d="m67.72729 88.19804l39.43313 -14.855072l39.433136 14.855072l-39.433136 14.855072z" fill-rule="evenodd"/><path fill="#0f6a7b" d="m67.72729 80.77037l39.43313 -14.855072l39.433136 14.855072l-39.433136 14.855064z" fill-rule="evenodd"/><path stroke="#ffffff" stroke-width="1.0" stroke-linejoin="round" stroke-linecap="butt" d="m67.72729 80.77037l39.43313 -14.855072l39.433136 14.855072l-39.433136 14.855064z" fill-rule="evenodd"/><path fill="#0f6a7b" d="m91.86764 142.52866l30.585747 0l0 11.164185l-30.585747 0z" fill-rule="evenodd"/><path fill="#0f6a7b" d="m102.99062 151.02325l0 -20.05194l8.339783 0l0 20.05194z" fill-rule="evenodd"/></g></svg>